<svg width="493" height="326" viewBox="0 0 493 326" fill="none" xmlns="http://www.w3.org/2000/svg">
<rect width="493" height="326" fill="white"/>
<g clip-path="url(#clip0_15_20)">
<path d="M28 81.9375C28 73.6752 33.3904 67 40.0625 67H208.938C215.61 67 221 73.6752 221 81.9375C221 90.1998 215.61 96.875 208.938 96.875V276.125C215.61 276.125 221 282.8 221 291.062C221 299.325 215.61 306 208.938 306H142.594V283.594C142.594 271.224 134.489 261.188 124.5 261.188C114.511 261.188 106.406 271.224 106.406 283.594V306H40.0625C33.3904 306 28 299.325 28 291.062C28 282.8 33.3904 276.125 40.0625 276.125V96.875C33.3904 96.875 28 90.1998 28 81.9375ZM64.1875 119.281V134.219C64.1875 138.327 66.9016 141.688 70.2188 141.688H82.2812C85.5984 141.688 88.3125 138.327 88.3125 134.219V119.281C88.3125 115.173 85.5984 111.812 82.2812 111.812H70.2188C66.9016 111.812 64.1875 115.173 64.1875 119.281ZM118.469 111.812C115.152 111.812 112.438 115.173 112.438 119.281V134.219C112.438 138.327 115.152 141.688 118.469 141.688H130.531C133.848 141.688 136.562 138.327 136.562 134.219V119.281C136.562 115.173 133.848 111.812 130.531 111.812H118.469ZM160.688 119.281V134.219C160.688 138.327 163.402 141.688 166.719 141.688H178.781C182.098 141.688 184.812 138.327 184.812 134.219V119.281C184.812 115.173 182.098 111.812 178.781 111.812H166.719C163.402 111.812 160.688 115.173 160.688 119.281ZM70.2188 156.625C66.9016 156.625 64.1875 159.986 64.1875 164.094V179.031C64.1875 183.139 66.9016 186.5 70.2188 186.5H82.2812C85.5984 186.5 88.3125 183.139 88.3125 179.031V164.094C88.3125 159.986 85.5984 156.625 82.2812 156.625H70.2188ZM112.438 164.094V179.031C112.438 183.139 115.152 186.5 118.469 186.5H130.531C133.848 186.5 136.562 183.139 136.562 179.031V164.094C136.562 159.986 133.848 156.625 130.531 156.625H118.469C115.152 156.625 112.438 159.986 112.438 164.094ZM166.719 156.625C163.402 156.625 160.688 159.986 160.688 164.094V179.031C160.688 183.139 163.402 186.5 166.719 186.5H178.781C182.098 186.5 184.812 183.139 184.812 179.031V164.094C184.812 159.986 182.098 156.625 178.781 156.625H166.719ZM151.641 246.25C156.654 246.25 160.801 241.162 159.557 235.14C155.561 215.768 141.387 201.438 124.5 201.438C107.613 201.438 93.4014 215.768 89.4434 235.14C88.1994 241.115 92.3836 246.25 97.3594 246.25H151.641Z" fill="url(#paint0_linear_15_20)"/>
</g>
<path d="M267.15 19C273.317 19 278.3 23.5007 278.3 29.0714V109.643H356.35V59.2857C356.35 53.715 361.333 49.2143 367.5 49.2143H445.55C464.017 49.2143 479 62.7478 479 79.4286V149.929C479 155.499 474.017 160 467.85 160C461.683 160 456.7 155.499 456.7 149.929V139.857H378.65H367.5H278.3V149.929C278.3 155.499 273.317 160 267.15 160C260.983 160 256 155.499 256 149.929V29.0714C256 23.5007 260.983 19 267.15 19ZM317.325 49.2143C324.718 49.2143 331.808 51.867 337.036 56.5889C342.263 61.3108 345.2 67.7151 345.2 74.3929C345.2 81.0706 342.263 87.4749 337.036 92.1968C331.808 96.9187 324.718 99.5714 317.325 99.5714C309.932 99.5714 302.842 96.9187 297.614 92.1968C292.387 87.4749 289.45 81.0706 289.45 74.3929C289.45 67.7151 292.387 61.3108 297.614 56.5889C302.842 51.867 309.932 49.2143 317.325 49.2143Z" fill="url(#paint1_linear_15_20)"/>
<defs>
<linearGradient id="paint0_linear_15_20" x1="124.5" y1="67" x2="124.5" y2="306" gradientUnits="userSpaceOnUse">
<stop stop-color="#E21E80"/>
<stop offset="1" stop-color="#0019FF"/>
</linearGradient>
<linearGradient id="paint1_linear_15_20" x1="367.5" y1="19" x2="367.5" y2="160" gradientUnits="userSpaceOnUse">
<stop stop-color="#E21E80"/>
<stop offset="1" stop-color="#0019FF"/>
</linearGradient>
<clipPath id="clip0_15_20">
<rect width="193" height="239" fill="white" transform="translate(28 67)"/>
</clipPath>
</defs>
</svg>
