<svg width="412" height="218" viewBox="0 0 412 218" fill="none" xmlns="http://www.w3.org/2000/svg">
<rect width="412" height="218" fill="white"/>
<g clip-path="url(#clip0_15_15)">
<path d="M233.062 52.5H345.938C351.461 47.0859 359.035 43.75 367.375 43.75C375.715 43.75 383.262 47.0859 388.785 52.4727C393.953 52.0352 398 47.7148 398 42.4375C398 40.4414 397.398 38.5 396.305 36.8594L375.633 5.85156C373.199 2.1875 369.125 0 364.723 0H256.277C251.902 0 247.801 2.1875 245.367 5.85156L224.695 36.832C223.602 38.5 223 40.4414 223 42.4102C223 47.9883 227.512 52.5 233.062 52.5ZM328 61.25H310.5V105H258V61.25H240.5V105V126.875C240.5 134.121 246.379 140 253.625 140H314.875C322.121 140 328 134.121 328 126.875V105V96.25V61.25ZM367.375 65.625C372.215 65.625 376.125 69.5352 376.125 74.375V87.5H358.625V74.375C358.625 69.5352 362.535 65.625 367.375 65.625ZM345.5 74.375V87.5C340.66 87.5 336.75 91.4102 336.75 96.25V131.25C336.75 136.09 340.66 140 345.5 140H389.25C394.09 140 398 136.09 398 131.25V96.25C398 91.4102 394.09 87.5 389.25 87.5V74.375C389.25 62.2891 379.461 52.5 367.375 52.5C355.289 52.5 345.5 62.2891 345.5 74.375Z" fill="url(#paint0_linear_15_15)"/>
</g>
<path d="M56.3 85C51.7091 85 48 88.7146 48 93.3125C48 97.9104 51.7091 101.625 56.3 101.625H60.45C62.7325 101.625 64.6 103.495 64.6 105.781V180.594C64.6 192.075 73.8856 201.375 85.35 201.375H90.2003C89.7334 202.674 89.5 204.077 89.5 205.531C89.5 212.415 95.0766 218 101.95 218C108.823 218 114.4 212.415 114.4 205.531C114.4 204.077 114.141 202.674 113.7 201.375H164.926C164.459 202.674 164.226 204.077 164.226 205.531C164.226 212.415 169.803 218 176.676 218C183.549 218 189.126 212.415 189.126 205.531C189.126 204.077 188.867 202.674 188.426 201.375H205.726C210.317 201.375 214.026 197.66 214.026 193.062C214.026 188.465 210.317 184.75 205.726 184.75H85.3759C83.0934 184.75 81.2259 182.88 81.2259 180.594V105.781C81.2 94.2996 71.9144 85 60.45 85H56.3ZM97.8 105.781V155.656C97.8 162.54 103.377 168.125 110.25 168.125H193.25C200.123 168.125 205.7 162.54 205.7 155.656V105.781C205.7 98.8975 200.123 93.3125 193.25 93.3125H168.35V130.719C168.35 132.251 167.52 133.654 166.145 134.381C164.771 135.109 163.163 135.031 161.892 134.174L151.75 127.394L141.608 134.174C140.338 135.031 138.703 135.109 137.355 134.381C136.006 133.654 135.15 132.251 135.15 130.719V93.3125H110.25C103.377 93.3125 97.8 98.8975 97.8 105.781Z" fill="url(#paint1_linear_15_15)"/>
<defs>
<linearGradient id="paint0_linear_15_15" x1="310.5" y1="0" x2="310.5" y2="140" gradientUnits="userSpaceOnUse">
<stop stop-color="#0019FF"/>
<stop offset="1" stop-color="#E21E80"/>
</linearGradient>
<linearGradient id="paint1_linear_15_15" x1="131.013" y1="85" x2="131.013" y2="218" gradientUnits="userSpaceOnUse">
<stop stop-color="#E21E80"/>
<stop offset="1" stop-color="#0019FF"/>
</linearGradient>
<clipPath id="clip0_15_15">
<rect width="175" height="140" fill="white" transform="translate(223)"/>
</clipPath>
</defs>
</svg>
