<svg width="364" height="273" viewBox="0 0 364 273" fill="none" xmlns="http://www.w3.org/2000/svg">
<rect width="364" height="273" fill="white"/>
<path d="M315.039 68.5258C313.256 67.887 311.474 67.2837 309.691 66.7159C309.988 65.4028 310.253 64.0897 310.517 62.7766C314.577 41.625 311.903 24.6257 302.892 19.0184C294.211 13.6596 280.05 19.2314 265.725 32.6463C264.306 33.9594 262.919 35.3435 261.599 36.7275C260.708 35.8048 259.784 34.8821 258.859 33.9949C243.841 19.6572 228.789 13.6241 219.778 19.2669C211.13 24.6612 208.555 40.6668 212.186 60.6827C212.549 62.6701 212.946 64.622 213.408 66.6094C211.295 67.2482 209.216 67.958 207.268 68.7033C189.642 75.2688 177 85.6316 177 96.3494C177 107.422 190.467 118.53 208.787 125.273C210.272 125.805 211.757 126.338 213.276 126.799C212.78 128.928 212.351 131.022 211.955 133.187C208.489 152.884 211.196 168.499 219.844 173.858C228.756 179.394 243.742 173.716 258.331 159.981C259.487 158.881 260.642 157.746 261.797 156.539C263.249 158.065 264.768 159.52 266.286 160.94C280.413 174 294.376 179.288 302.991 173.929C311.903 168.392 314.808 151.606 311.045 131.164C310.748 129.603 310.418 128.006 310.054 126.373C311.111 126.054 312.134 125.699 313.157 125.344C332.203 118.566 346 107.599 346 96.3494C346 85.5961 332.995 75.1623 315.039 68.5258ZM270.379 38.3955C282.658 26.897 294.112 22.3899 299.327 25.6194C304.905 29.0619 307.051 42.9736 303.552 61.2506C303.321 62.4572 303.09 63.6283 302.793 64.7995C295.465 63.025 288.038 61.7474 280.579 61.0376C276.287 54.4366 271.6 48.1196 266.517 42.1929C267.804 40.8798 269.059 39.6377 270.379 38.3955ZM232.189 114.768C233.872 117.856 235.589 120.943 237.404 123.96C232.255 123.357 227.139 122.469 222.089 121.298C223.541 116.188 225.356 110.9 227.469 105.506C228.987 108.629 230.539 111.716 232.189 114.768ZM222.188 72.0748C226.941 70.9391 231.991 70.0164 237.239 69.3066C235.49 72.2522 233.773 75.2688 232.156 78.3209C230.539 81.3374 228.954 84.425 227.469 87.548C225.389 82.2602 223.64 77.0787 222.188 72.0748ZM231.232 96.5268C233.41 91.6293 235.787 86.8383 238.296 82.1182C240.804 77.3981 243.511 72.82 246.349 68.3129C251.301 67.9225 256.351 67.7096 261.5 67.7096C266.649 67.7096 271.732 67.9225 276.651 68.3129C279.456 72.7845 282.13 77.3626 284.671 82.0472C287.213 86.7318 289.59 91.5228 291.834 96.3848C289.623 101.282 287.246 106.109 284.704 110.864C282.196 115.584 279.522 120.163 276.717 124.705C271.798 125.096 266.682 125.273 261.5 125.273C256.318 125.273 251.301 125.096 246.448 124.776C243.577 120.269 240.87 115.655 238.329 110.935C235.787 106.215 233.443 101.424 231.232 96.5268ZM290.844 114.697C292.527 111.574 294.112 108.416 295.663 105.222C297.776 110.368 299.624 115.584 301.241 120.943C296.125 122.185 290.943 123.144 285.728 123.782C287.51 120.801 289.194 117.749 290.844 114.697ZM295.597 87.548C294.046 84.425 292.461 81.3019 290.811 78.2499C289.194 75.2333 287.51 72.2522 285.761 69.3066C291.075 70.0164 296.158 70.9746 300.911 72.1457C299.393 77.3981 297.611 82.5086 295.597 87.548ZM261.566 47.6227C265.032 51.6685 268.3 55.9272 271.336 60.3278C264.801 60.0084 258.232 60.0084 251.697 60.3278C254.931 55.7497 258.265 51.491 261.566 47.6227ZM223.277 25.8679C228.822 22.3899 241.134 27.3584 254.106 39.7086C254.931 40.4894 255.757 41.3411 256.615 42.1929C251.499 48.1196 246.779 54.4366 242.454 61.0376C234.995 61.7474 227.601 62.9895 220.273 64.7285C219.844 62.9186 219.481 61.0731 219.118 59.2277C216.015 42.0509 218.062 29.0974 223.277 25.8679ZM215.19 119.417C213.804 118.991 212.45 118.53 211.097 118.033C204.066 115.655 196.079 111.894 190.302 106.961C186.968 104.476 184.724 100.644 184.097 96.3494C184.097 89.8548 194.527 81.5504 209.579 75.9076C211.46 75.1978 213.375 74.559 215.289 73.9557C217.534 81.6568 220.24 89.216 223.376 96.5268C220.207 103.944 217.468 111.61 215.19 119.417ZM253.677 154.197C248.231 159.556 241.926 163.814 235.061 166.724C231.397 168.605 227.172 168.783 223.409 167.186C218.161 163.921 215.982 151.393 218.953 134.536C219.316 132.548 219.712 130.561 220.174 128.609C227.568 130.312 235.028 131.484 242.587 132.087C246.944 138.723 251.73 145.076 256.846 151.038C255.79 152.138 254.733 153.203 253.677 154.197ZM261.764 145.573C258.397 141.669 255.03 137.339 251.763 132.69C254.931 132.832 258.199 132.903 261.5 132.903C264.9 132.903 268.234 132.832 271.534 132.655C268.498 137.162 265.23 141.456 261.764 145.573ZM304.905 156.22C304.608 160.549 302.628 164.595 299.459 167.328C294.211 170.593 283.021 166.334 270.94 155.19C269.554 153.913 268.168 152.529 266.748 151.109C271.798 145.111 276.453 138.759 280.678 132.087C288.236 131.413 295.762 130.171 303.189 128.361C303.519 129.816 303.816 131.271 304.08 132.69C305.697 140.356 305.962 148.341 304.905 156.22ZM310.913 118.069C309.988 118.388 309.064 118.708 308.107 118.991C305.796 111.255 302.958 103.696 299.69 96.3494C302.859 89.1096 305.532 81.6568 307.777 74.0267C309.493 74.559 311.144 75.1268 312.728 75.6947C328.11 81.3729 338.903 89.8193 338.903 96.2784C338.903 103.234 327.384 112.213 310.913 118.069ZM261.5 112.745C269.851 112.745 276.618 105.47 276.618 96.4913C276.618 87.5125 269.851 80.2373 261.5 80.2373C253.149 80.2373 246.382 87.5125 246.382 96.4913C246.382 105.47 253.149 112.745 261.5 112.745Z" fill="url(#paint0_linear_15_6)"/>
<path d="M128.819 185.78C132.557 183.216 137.746 180.995 137.746 180.995C137.746 180.995 122.981 183.675 108.293 184.9C90.3239 186.393 71.0193 186.699 61.3289 185.398C38.4 182.335 73.9189 173.875 73.9189 173.875C73.9189 173.875 60.1462 172.956 43.1689 181.148C23.1394 190.872 92.7656 195.312 128.819 185.78ZM96.2374 173.492C88.9886 157.146 64.5336 142.791 96.2374 117.679C135.8 86.3654 115.504 66 115.504 66C123.706 98.3472 86.6614 108.147 73.2703 128.244C64.1521 141.987 77.734 156.725 96.2374 173.492ZM139.959 106.042C139.997 106.042 73.1177 122.809 105.05 159.711C114.474 170.583 102.57 180.383 102.57 180.383C102.57 180.383 126.491 167.98 115.504 152.476C105.241 138.006 97.3819 130.809 139.959 106.042ZM137.632 209.591C137.423 209.956 137.166 210.291 136.869 210.586C185.817 197.686 167.809 165.071 144.422 173.339C143.159 173.804 142.067 174.646 141.294 175.751C142.66 175.255 144.063 174.871 145.491 174.602C157.318 172.114 174.295 190.489 137.632 209.591ZM155.639 233.44C155.639 233.44 161.171 237.995 149.573 241.555C127.483 248.255 57.7045 250.283 38.3237 241.823C31.342 238.799 44.4279 234.55 48.5482 233.67C52.8212 232.751 55.301 232.904 55.301 232.904C47.5563 227.43 5.20832 243.661 33.7837 248.293C111.689 261.002 175.859 242.589 155.639 233.44ZM70.3326 217.592C40.3075 226.014 88.6071 243.393 126.835 226.971C123.106 225.517 119.507 223.75 116.076 221.688C99.0224 224.942 91.1251 225.171 75.6357 223.41C62.855 221.956 70.3326 217.592 70.3326 217.592ZM138.929 254.801C108.904 260.466 71.8587 259.815 49.9217 256.179C49.9217 256.14 54.4235 259.892 77.5432 261.385C112.719 263.643 166.741 260.122 168 243.431C168 243.431 165.558 249.748 138.929 254.801ZM122.295 201.131C99.7091 205.495 86.6232 205.38 70.1037 203.658C57.323 202.318 65.6782 196.116 65.6782 196.116C32.5628 207.141 84.0671 219.621 130.345 206.031C127.354 204.971 124.613 203.303 122.295 201.131Z" fill="url(#paint1_linear_15_6)"/>
<defs>
<linearGradient id="paint0_linear_15_6" x1="261.5" y1="17" x2="261.5" y2="176" gradientUnits="userSpaceOnUse">
<stop stop-color="#0019FF"/>
<stop offset="1" stop-color="#E21E80"/>
</linearGradient>
<linearGradient id="paint1_linear_15_6" x1="96" y1="66" x2="96" y2="262" gradientUnits="userSpaceOnUse">
<stop stop-color="#0019FF"/>
<stop offset="1" stop-color="#E21E80"/>
</linearGradient>
</defs>
</svg>
