<svg width="272" height="208" viewBox="0 0 272 208" fill="none" xmlns="http://www.w3.org/2000/svg">
<rect width="272" height="208" fill="white"/>
<g clip-path="url(#clip0_16_25)">
<path d="M84.2 110.667V54.1333C84.2 46.3379 90.5379 40 98.3333 40H154.867C162.662 40 169 46.3379 169 54.1333V97.7479C169 101.502 167.52 105.102 164.87 107.752L151.952 120.67C149.302 123.32 145.702 124.8 141.948 124.8H98.3333C90.5379 124.8 84.2 118.462 84.2 110.667ZM123.067 61.2C121.123 61.2 119.533 62.79 119.533 64.7333V75.3333H108.933C106.99 75.3333 105.4 76.9233 105.4 78.8667V85.9333C105.4 87.8767 106.99 89.4667 108.933 89.4667H119.533V100.067C119.533 102.01 121.123 103.6 123.067 103.6H130.133C132.077 103.6 133.667 102.01 133.667 100.067V89.4667H144.267C146.21 89.4667 147.8 87.8767 147.8 85.9333V78.8667C147.8 76.9233 146.21 75.3333 144.267 75.3333H133.667V64.7333C133.667 62.79 132.077 61.2 130.133 61.2H123.067ZM128.367 135.4C131.304 135.4 133.667 137.763 133.667 140.7C133.667 143.637 131.304 146 128.367 146H93.0333C76.4487 146 63 132.551 63 115.967V66.5C63 63.5629 65.3629 61.2 68.3 61.2C71.2371 61.2 73.6 63.5629 73.6 66.5V115.967C73.6 126.699 82.3008 135.4 93.0333 135.4H128.367Z" fill="url(#paint0_linear_16_25)"/>
</g>
<path d="M192 166C175.99 166 157 154.516 157 137.125C157 122.163 192.136 101.5 188.164 83.9195C189.07 82.6891 190.414 82 191.864 82H192.136C193.586 82 194.93 82.6891 195.836 83.9195C201.334 91.4664 221 119.538 221 134.5C221 151.891 208.01 166 192 166ZM177.5 137.125C177.5 135.681 176.413 134.5 175.083 134.5C173.754 134.5 172.667 135.681 172.667 137.125C172.667 147.28 180.234 155.5 189.583 155.5C190.913 155.5 192 154.319 192 152.875C192 151.431 190.913 150.25 189.583 150.25C182.907 150.25 177.5 144.377 177.5 137.125Z" fill="url(#paint1_linear_16_25)"/>
<defs>
<linearGradient id="paint0_linear_16_25" x1="116" y1="40" x2="116" y2="146" gradientUnits="userSpaceOnUse">
<stop stop-color="#0019FF"/>
<stop offset="1" stop-color="#E21E80"/>
</linearGradient>
<linearGradient id="paint1_linear_16_25" x1="192" y1="82" x2="192" y2="166" gradientUnits="userSpaceOnUse">
<stop stop-color="#0019FF"/>
<stop offset="1" stop-color="#E21E80"/>
</linearGradient>
<clipPath id="clip0_16_25">
<rect width="106" height="106" fill="white" transform="translate(63 40)"/>
</clipPath>
</defs>
</svg>
