<svg width="393" height="393" viewBox="0 0 393 393" fill="none" xmlns="http://www.w3.org/2000/svg">
<g clip-path="url(#clip0_84_2)">
<path d="M149.341 320.038C149.341 320.22 149.425 320.381 149.536 320.504C149.608 320.567 149.69 320.617 149.778 320.653C149.778 320.653 149.835 320.658 149.862 320.653L149.894 320.658C150.077 320.717 150.265 320.734 150.453 320.771C150.835 320.83 151.233 320.865 151.648 320.865C155.514 320.865 158.66 318.002 158.66 314.468C158.66 310.938 155.516 308.068 151.648 308.068C151.233 308.068 150.835 308.127 150.453 308.169C150.265 308.226 150.077 308.239 149.894 308.271H149.778C149.694 308.327 149.61 308.369 149.536 308.407C149.418 308.536 149.349 308.703 149.341 308.878V320.038ZM150.705 334.368C150.672 334.282 150.616 334.206 150.544 334.148C150.407 334.024 150.227 333.958 150.043 333.966C149.652 333.966 149.341 334.255 149.341 334.605V344.162C149.341 346.641 147.13 348.64 144.421 348.64H137.194C134.477 348.64 132.274 346.639 132.274 344.162V298.939C132.274 296.467 134.477 294.464 137.194 294.464H154.884C166.263 294.464 175.493 302.874 175.493 313.24C175.493 319.413 172.223 324.894 167.159 328.309L173.581 342.433C173.841 342.979 173.979 343.564 173.979 344.186C173.979 346.666 171.763 348.664 169.046 348.664H160.352C158.253 348.664 156.492 347.486 155.77 345.819L150.709 334.408L150.705 334.368ZM77.1319 318.422C77.1319 315.947 74.9287 313.944 72.2068 313.944H63.841C63.4384 313.944 63.1247 313.665 63.1247 313.28V310.686C63.1247 310.331 63.4359 310.047 63.841 310.047H78.3224C81.0319 310.047 83.2475 308.051 83.2475 305.576V298.907C83.2475 296.432 81.0319 294.427 78.3224 294.427H50.9873C48.2704 294.427 46.0598 296.432 46.0598 298.907V344.147C46.0598 346.627 48.2704 348.625 50.9873 348.625H78.3224C81.0319 348.625 83.2475 346.624 83.2475 344.147V337.5C83.2475 335.008 81.0319 333.007 78.3224 333.007H63.841C63.4384 333.007 63.1247 332.731 63.1247 332.358V329.757C63.1247 329.409 63.4359 329.117 63.841 329.117H72.2068C74.9311 329.117 77.1319 327.107 77.1319 324.639V318.422ZM17.0526 320.038C17.0526 320.22 17.1366 320.381 17.2601 320.504C17.3272 320.562 17.401 320.612 17.4799 320.653C17.5194 320.653 17.5441 320.658 17.5836 320.653C17.5836 320.653 17.6034 320.653 17.6108 320.658C17.8059 320.717 17.9862 320.734 18.1962 320.771C18.5667 320.83 18.9619 320.865 19.3521 320.865C23.2448 320.865 26.3717 318.002 26.3717 314.468C26.3717 310.938 23.2448 308.068 19.3521 308.068C18.9619 308.068 18.5667 308.127 18.1962 308.169C17.9887 308.226 17.8059 308.239 17.6108 308.271H17.4824C17.4107 308.327 17.3317 308.369 17.2625 308.407C17.1347 308.531 17.0603 308.7 17.0551 308.878V320.038H17.0526ZM17.0526 336.196V344.149C17.0526 346.629 14.8568 348.627 12.1473 348.627H4.92757C2.2032 348.627 0 346.627 0 344.149V298.927C0 296.454 2.2032 294.451 4.92757 294.451H20.6785C33.2012 294.451 43.3601 303.691 43.3601 315.095C43.3601 326.489 33.2012 335.739 20.6785 335.739C20.0734 335.739 19.4559 335.682 18.8655 335.67C18.5593 335.67 18.2481 335.611 17.9541 335.593H17.8059C17.3786 335.593 17.0526 335.87 17.0526 336.233M98.9663 310.684V344.144C98.9663 346.624 101.182 348.625 103.899 348.625H111.114C113.843 348.625 116.039 346.622 116.039 344.144V310.676C116.039 310.318 116.35 310.042 116.74 310.042H123.824C126.548 310.042 128.756 308.041 128.756 305.566V298.895C128.756 296.422 126.546 294.417 123.824 294.417H91.1785C88.4541 294.417 86.2584 296.422 86.2584 298.895V305.566C86.2584 308.041 88.4541 310.042 91.1785 310.042H98.2821C98.66 310.042 98.9638 310.318 98.9638 310.676M260.124 326.469C260.124 326.119 260.427 325.842 260.825 325.842C261.033 325.842 261.243 325.923 261.359 326.062L282.8 347.575C282.832 347.634 282.884 347.664 282.929 347.713C283.546 348.277 284.431 348.63 285.386 348.63H290.072C292.203 348.63 293.913 347.066 293.913 345.127V298.905C293.913 296.432 291.702 294.429 288.988 294.429H281.78C279.056 294.429 276.845 296.432 276.845 298.905V316.293C276.845 316.644 276.549 316.95 276.159 316.95C275.975 316.947 275.799 316.876 275.665 316.75H275.64L254.425 295.531C254.366 295.471 254.341 295.434 254.287 295.392C253.612 294.794 252.739 294.468 251.837 294.476H246.907C244.788 294.476 243.051 296.052 243.051 297.986V344.194C243.051 346.674 245.255 348.674 247.984 348.674H255.211C257.901 348.674 260.124 346.671 260.124 344.194V326.469ZM209.02 308.229C200.946 308.229 194.403 314.171 194.403 321.542C194.403 328.882 200.946 334.847 209.02 334.847C217.102 334.847 223.65 328.882 223.65 321.542C223.65 314.171 217.102 308.229 209.02 308.229ZM240.487 321.542C240.487 337.357 226.404 350.196 209.02 350.196C191.634 350.196 177.558 337.359 177.558 321.542C177.558 305.709 191.634 292.88 209.02 292.88C226.404 292.88 240.487 305.709 240.487 321.542ZM365.976 324.723C361.967 321.515 359.426 316.755 359.426 311.489C359.426 301.71 368.118 293.779 378.837 293.779C386.415 293.779 388.186 294.627 389.959 295.378C391.748 296.106 393 297.768 393 299.68V305.351C393 307.705 390.893 309.629 388.314 309.629C385.721 309.629 384.785 308.449 382.411 308.449C380.02 308.449 378.079 310.215 378.079 312.386C378.079 313.467 378.57 314.465 379.358 315.174C379.554 315.345 379.773 315.493 379.991 315.653C381.895 316.972 384.434 318.748 385.289 319.583C385.341 319.642 385.37 319.647 385.412 319.677C388.858 322.88 390.975 327.252 390.975 332.106C390.975 341.867 382.293 349.781 371.556 349.781C364.005 349.781 362.224 348.946 360.451 348.2C358.643 347.459 357.408 345.807 357.408 343.902V338.214C357.408 335.865 359.502 333.951 362.093 333.951C364.684 333.951 365.611 335.124 367.997 335.124C370.38 335.124 372.324 333.361 372.324 331.194C372.324 329.893 371.615 328.724 370.548 328.008C369.792 327.492 367.159 325.684 365.976 324.723ZM330.562 328.245H321.774C321.376 328.245 321.065 327.941 321.065 327.593C321.065 327.517 321.085 327.462 321.112 327.391L325.496 315.767C325.545 315.633 325.635 315.517 325.754 315.438C325.872 315.358 326.013 315.317 326.156 315.322C326.482 315.322 326.746 315.498 326.842 315.767L331.236 327.391C331.249 327.457 331.256 327.525 331.256 327.593C331.256 327.941 330.95 328.245 330.562 328.245ZM355.504 344.48H355.518L338.006 296.85C337.488 295.442 336.033 294.432 334.304 294.432H318.024C316.308 294.432 314.846 295.442 314.324 296.85L296.832 344.48C296.71 344.791 296.647 345.122 296.644 345.456C296.644 347.21 298.218 348.63 300.167 348.63H310.494C312.208 348.63 313.672 347.629 314.186 346.219L314.198 346.16C314.198 346.16 314.216 346.16 314.216 346.103L315.051 343.865C315.132 343.601 315.419 343.421 315.725 343.421H336.618C336.932 343.421 337.196 343.598 337.283 343.865L338.12 346.103C338.127 346.103 338.127 346.16 338.127 346.16L338.14 346.219C338.661 347.627 340.128 348.63 341.864 348.63H352.174C354.108 348.63 355.669 347.21 355.669 345.456C355.672 345.124 355.615 344.793 355.504 344.48Z" fill="url(#paint0_linear_84_2)"/>
<path d="M246.033 197.058C246.033 225.505 223.047 248.56 194.714 248.56C166.381 248.56 143.394 225.505 143.394 197.058C143.394 168.612 166.379 145.54 194.714 145.54C223.05 145.54 246.033 168.614 246.033 197.058Z" fill="url(#paint1_linear_84_2)"/>
<path d="M239.072 119.951L204.535 59.8667H273.625L239.072 119.951ZM194.714 257.103C161.676 257.103 134.897 230.22 134.897 197.056C134.897 185.97 137.898 175.582 143.112 166.638L194.714 76.9489L246.312 166.638C251.711 175.865 254.552 186.365 254.542 197.056C254.544 230.22 227.745 257.103 194.714 257.103ZM248.886 136.999L303.069 42.8042H194.714L128.522 157.904C121.538 169.769 117.864 183.29 117.884 197.058C117.884 239.638 152.281 274.175 194.712 274.175C237.146 274.175 271.535 239.64 271.535 197.058C271.535 182.764 267.674 169.375 260.909 157.904L248.886 136.999Z" fill="url(#paint2_linear_84_2)"/>
</g>
<defs>
<linearGradient id="paint0_linear_84_2" x1="0" y1="321.538" x2="393" y2="321.538" gradientUnits="userSpaceOnUse">
<stop stop-color="#0019FF"/>
<stop offset="1" stop-color="#E21E80"/>
</linearGradient>
<linearGradient id="paint1_linear_84_2" x1="194.713" y1="145.54" x2="194.713" y2="248.56" gradientUnits="userSpaceOnUse">
<stop stop-color="#E21E80"/>
<stop offset="1" stop-color="#0019FF"/>
</linearGradient>
<linearGradient id="paint2_linear_84_2" x1="210.476" y1="42.8042" x2="172.429" y2="42.7385" gradientUnits="userSpaceOnUse">
<stop stop-color="#E21E80"/>
<stop offset="1" stop-color="#0820FF"/>
</linearGradient>
<clipPath id="clip0_84_2">
<rect width="393" height="393" fill="white"/>
</clipPath>
</defs>
</svg>
