<svg width="800" height="800" viewBox="0 0 800 800" fill="none" xmlns="http://www.w3.org/2000/svg">
<g clip-path="url(#clip0_84_2)">
<path d="M304.002 651.476C304.002 651.848 304.173 652.175 304.399 652.426C304.546 652.553 304.713 652.655 304.892 652.728C304.892 652.728 305.008 652.738 305.063 652.728L305.128 652.738C305.501 652.858 305.883 652.894 306.265 652.969C307.044 653.09 307.854 653.16 308.698 653.16C316.567 653.16 322.973 647.333 322.973 640.138C322.973 632.953 316.572 627.11 308.698 627.11C307.854 627.11 307.044 627.231 306.265 627.317C305.883 627.432 305.501 627.457 305.128 627.523H304.892C304.721 627.638 304.55 627.724 304.399 627.799C304.158 628.063 304.018 628.403 304.002 628.76V651.476ZM306.778 680.648C306.711 680.472 306.598 680.317 306.451 680.2C306.173 679.946 305.806 679.813 305.43 679.828C304.636 679.828 304.002 680.416 304.002 681.13V700.583C304.002 705.631 299.502 709.699 293.987 709.699H279.275C273.744 709.699 269.259 705.626 269.259 700.583V608.527C269.259 603.494 273.744 599.417 279.275 599.417H315.285C338.448 599.417 357.238 616.537 357.238 637.639C357.238 650.204 350.581 661.361 340.274 668.314L353.346 697.064C353.874 698.175 354.156 699.366 354.156 700.634C354.156 705.682 349.646 709.749 344.115 709.749H326.417C322.143 709.749 318.558 707.351 317.09 703.957L306.788 680.728L306.778 680.648ZM157.011 648.187C157.011 643.149 152.527 639.072 146.986 639.072H129.956C129.137 639.072 128.498 638.504 128.498 637.719V632.44C128.498 631.716 129.132 631.138 129.956 631.138H159.435C164.95 631.138 169.461 627.075 169.461 622.037V608.462C169.461 603.424 164.95 599.341 159.435 599.341H103.791C98.2603 599.341 93.7604 603.424 93.7604 608.462V700.553C93.7604 705.601 98.2603 709.669 103.791 709.669H159.435C164.95 709.669 169.461 705.596 169.461 700.553V687.023C169.461 681.95 164.95 677.877 159.435 677.877H129.956C129.137 677.877 128.498 677.314 128.498 676.555V671.26C128.498 670.552 129.132 669.958 129.956 669.958H146.986C152.532 669.958 157.011 665.866 157.011 660.843V648.187ZM34.7127 651.476C34.7127 651.848 34.8836 652.175 35.135 652.426C35.2716 652.544 35.4218 652.645 35.5825 652.728C35.6629 652.728 35.7132 652.738 35.7937 652.728C35.7937 652.728 35.8339 652.728 35.849 652.738C36.2462 652.858 36.6132 652.894 37.0406 652.969C37.7948 653.09 38.5992 653.16 39.3936 653.16C47.3176 653.16 53.6829 647.333 53.6829 640.138C53.6829 632.953 47.3176 627.11 39.3936 627.11C38.5992 627.11 37.7948 627.231 37.0406 627.317C36.6182 627.432 36.2462 627.457 35.849 627.523H35.5875C35.4417 627.638 35.2808 627.724 35.14 627.799C34.8799 628.052 34.7284 628.397 34.7177 628.76V651.476H34.7127ZM34.7127 684.368V700.558C34.7127 705.606 30.2428 709.674 24.7272 709.674H10.0307C4.48489 709.674 0 705.601 0 700.558V608.502C0 603.469 4.48489 599.392 10.0307 599.392H42.0936C67.5851 599.392 88.2649 618.201 88.2649 641.415C88.2649 664.609 67.5851 683.438 42.0936 683.438C40.8618 683.438 39.6048 683.322 38.4031 683.297C37.7797 683.297 37.1462 683.177 36.5478 683.141H36.2462C35.3763 683.141 34.7127 683.705 34.7127 684.444M201.458 632.435V700.548C201.458 705.596 205.968 709.669 211.499 709.669H226.185C231.741 709.669 236.211 705.591 236.211 700.548V632.42C236.211 631.691 236.844 631.128 237.639 631.128H252.059C257.605 631.128 262.1 627.055 262.1 622.017V608.437C262.1 603.404 257.6 599.321 252.059 599.321H185.605C180.059 599.321 175.59 603.404 175.59 608.437V622.017C175.59 627.055 180.059 631.128 185.605 631.128H200.065C200.835 631.128 201.453 631.691 201.453 632.42M529.514 664.568C529.514 663.854 530.132 663.291 530.942 663.291C531.364 663.291 531.791 663.457 532.028 663.739L575.675 707.532C575.74 707.652 575.846 707.713 575.936 707.813C577.193 708.96 578.993 709.679 580.939 709.679H590.477C594.816 709.679 598.296 706.496 598.296 702.549V608.457C598.296 603.424 593.796 599.346 588.27 599.346H573.598C568.053 599.346 563.553 603.424 563.553 608.457V643.853C563.553 644.567 562.949 645.191 562.155 645.191C561.781 645.185 561.422 645.04 561.149 644.784H561.099L517.914 601.589C517.794 601.468 517.744 601.393 517.633 601.307C516.258 600.09 514.481 599.425 512.645 599.442H502.61C498.296 599.442 494.761 602.65 494.761 606.587V700.649C494.761 705.697 499.246 709.769 504.802 709.769H519.513C524.989 709.769 529.514 705.692 529.514 700.649V664.568ZM425.486 627.437C409.05 627.437 395.731 639.534 395.731 654.538C395.731 669.481 409.05 681.623 425.486 681.623C441.938 681.623 455.267 669.481 455.267 654.538C455.267 639.534 441.938 627.437 425.486 627.437ZM489.542 654.538C489.542 686.731 460.873 712.866 425.486 712.866C390.095 712.866 361.441 686.736 361.441 654.538C361.441 622.309 390.095 596.194 425.486 596.194C460.873 596.194 489.542 622.309 489.542 654.538ZM744.99 661.014C736.829 654.482 731.656 644.794 731.656 634.074C731.656 614.169 749.349 598.024 771.17 598.024C786.596 598.024 790.201 599.749 793.811 601.277C797.451 602.76 800 606.144 800 610.036V621.58C800 626.371 795.711 630.288 790.462 630.288C785.183 630.288 783.277 627.885 778.445 627.885C773.578 627.885 769.626 631.48 769.626 635.899C769.626 638.101 770.627 640.133 772.231 641.576C772.628 641.923 773.076 642.224 773.518 642.551C777.395 645.236 782.563 648.851 784.303 650.551C784.408 650.671 784.469 650.681 784.554 650.742C791.568 657.263 795.877 666.162 795.877 676.042C795.877 695.912 778.204 712.022 756.348 712.022C740.977 712.022 737.352 710.322 733.742 708.804C730.062 707.295 727.548 703.932 727.548 700.055V688.476C727.548 683.694 731.812 679.798 737.086 679.798C742.36 679.798 744.246 682.186 749.103 682.186C753.954 682.186 757.911 678.596 757.911 674.187C757.911 671.537 756.468 669.159 754.296 667.701C752.758 666.65 747.398 662.969 744.99 661.014ZM672.9 668.183H655.01C654.201 668.183 653.567 667.565 653.567 666.856C653.567 666.7 653.607 666.59 653.663 666.444L662.587 642.782C662.687 642.509 662.87 642.274 663.112 642.112C663.353 641.949 663.639 641.867 663.93 641.877C664.593 641.877 665.131 642.234 665.328 642.782L674.272 666.444C674.298 666.58 674.312 666.718 674.312 666.856C674.312 667.565 673.689 668.183 672.9 668.183ZM723.671 701.232H723.702L688.054 604.274C686.998 601.408 684.036 599.351 680.517 599.351H647.378C643.884 599.351 640.907 601.408 639.846 604.274L604.239 701.232C603.99 701.865 603.861 702.538 603.856 703.218C603.856 706.788 607.059 709.679 611.026 709.679H632.048C635.537 709.679 638.519 707.642 639.565 704.771L639.59 704.651C639.59 704.651 639.625 704.651 639.625 704.535L641.324 699.98C641.49 699.442 642.074 699.075 642.697 699.075H685.228C685.867 699.075 686.405 699.437 686.581 699.98L688.285 704.535C688.3 704.535 688.3 704.651 688.3 704.651L688.325 704.771C689.386 707.637 692.373 709.679 695.907 709.679H716.894C720.831 709.679 724.008 706.788 724.008 703.218C724.013 702.541 723.899 701.869 723.671 701.232Z" fill="url(#paint0_linear_84_2)"/>
<path d="M500.83 401.136C500.83 459.043 454.04 505.973 396.365 505.973C338.69 505.973 291.895 459.043 291.895 401.136C291.895 343.23 338.685 296.264 396.365 296.264C454.045 296.264 500.83 343.235 500.83 401.136Z" fill="url(#paint1_linear_84_2)"/>
<path d="M486.661 244.175L416.356 121.867H556.996L486.661 244.175ZM396.365 523.365C329.112 523.365 274.599 468.641 274.599 401.132C274.599 378.566 280.708 357.419 291.322 339.213L396.365 156.64L501.398 339.213C512.388 357.996 518.171 379.37 518.151 401.132C518.156 468.641 463.603 523.365 396.365 523.365ZM506.637 278.878L616.934 87.1338H396.365L261.622 321.434C247.405 345.587 239.927 373.11 239.967 401.137C239.967 487.813 309.986 558.118 396.36 558.118C482.739 558.118 552.743 487.818 552.743 401.137C552.743 372.04 544.884 344.784 531.113 321.434L506.637 278.878Z" fill="url(#paint2_linear_84_2)"/>
</g>
<defs>
<linearGradient id="paint0_linear_84_2" x1="0" y1="654.53" x2="800" y2="654.53" gradientUnits="userSpaceOnUse">
<stop stop-color="#0019FF"/>
<stop offset="1" stop-color="#E21E80"/>
</linearGradient>
<linearGradient id="paint1_linear_84_2" x1="396.362" y1="296.264" x2="396.362" y2="505.973" gradientUnits="userSpaceOnUse">
<stop stop-color="#E21E80"/>
<stop offset="1" stop-color="#0019FF"/>
</linearGradient>
<linearGradient id="paint2_linear_84_2" x1="428.45" y1="87.1338" x2="428.45" y2="558.118" gradientUnits="userSpaceOnUse">
<stop stop-color="#E21E80"/>
<stop offset="1" stop-color="#0820FF"/>
</linearGradient>
<clipPath id="clip0_84_2">
<rect width="800" height="800" fill="white"/>
</clipPath>
</defs>
</svg>
