<svg width="436" height="428" viewBox="0 0 436 428" fill="none" xmlns="http://www.w3.org/2000/svg">
<g clip-path="url(#clip0_86_2)">
<path d="M171.341 337.038C171.341 337.22 171.425 337.381 171.536 337.504C171.608 337.567 171.69 337.617 171.778 337.653C171.778 337.653 171.835 337.658 171.862 337.653L171.894 337.658C172.077 337.717 172.265 337.734 172.453 337.771C172.835 337.83 173.233 337.865 173.648 337.865C177.514 337.865 180.66 335.002 180.66 331.468C180.66 327.938 177.516 325.068 173.648 325.068C173.233 325.068 172.835 325.127 172.453 325.169C172.265 325.226 172.077 325.239 171.894 325.271H171.778C171.694 325.327 171.61 325.369 171.536 325.407C171.418 325.536 171.349 325.703 171.341 325.878V337.038ZM172.705 351.368C172.672 351.282 172.616 351.206 172.544 351.148C172.407 351.024 172.227 350.958 172.043 350.966C171.652 350.966 171.341 351.255 171.341 351.605V361.162C171.341 363.641 169.13 365.64 166.421 365.64H159.194C156.477 365.64 154.274 363.639 154.274 361.162V315.939C154.274 313.467 156.477 311.464 159.194 311.464H176.884C188.263 311.464 197.493 319.874 197.493 330.24C197.493 336.413 194.223 341.894 189.159 345.309L195.581 359.433C195.841 359.979 195.979 360.564 195.979 361.186C195.979 363.666 193.763 365.664 191.046 365.664H182.352C180.253 365.664 178.492 364.486 177.77 362.819L172.709 351.408L172.705 351.368ZM99.1319 335.422C99.1319 332.947 96.9287 330.944 94.2068 330.944H85.841C85.4384 330.944 85.1247 330.665 85.1247 330.28V327.686C85.1247 327.331 85.4359 327.047 85.841 327.047H100.322C103.032 327.047 105.247 325.051 105.247 322.576V315.907C105.247 313.432 103.032 311.427 100.322 311.427H72.9873C70.2704 311.427 68.0598 313.432 68.0598 315.907V361.147C68.0598 363.627 70.2704 365.625 72.9873 365.625H100.322C103.032 365.625 105.247 363.624 105.247 361.147V354.5C105.247 352.008 103.032 350.007 100.322 350.007H85.841C85.4384 350.007 85.1247 349.731 85.1247 349.358V346.757C85.1247 346.409 85.4359 346.117 85.841 346.117H94.2068C96.9311 346.117 99.1319 344.107 99.1319 341.639V335.422ZM39.0526 337.038C39.0526 337.22 39.1366 337.381 39.2601 337.504C39.3272 337.562 39.401 337.612 39.4799 337.653C39.5194 337.653 39.5441 337.658 39.5836 337.653C39.5836 337.653 39.6034 337.653 39.6108 337.658C39.8059 337.717 39.9862 337.734 40.1962 337.771C40.5667 337.83 40.9619 337.865 41.3521 337.865C45.2448 337.865 48.3717 335.002 48.3717 331.468C48.3717 327.938 45.2448 325.068 41.3521 325.068C40.9619 325.068 40.5667 325.127 40.1962 325.169C39.9887 325.226 39.8059 325.239 39.6108 325.271H39.4824C39.4107 325.327 39.3317 325.369 39.2625 325.407C39.1347 325.531 39.0603 325.7 39.0551 325.878V337.038H39.0526ZM39.0526 353.196V361.149C39.0526 363.629 36.8568 365.627 34.1473 365.627H26.9276C24.2032 365.627 22 363.627 22 361.149V315.927C22 313.454 24.2032 311.451 26.9276 311.451H42.6785C55.2012 311.451 65.3601 320.691 65.3601 332.095C65.3601 343.489 55.2012 352.739 42.6785 352.739C42.0734 352.739 41.4559 352.682 40.8655 352.67C40.5593 352.67 40.2481 352.611 39.9541 352.593H39.8059C39.3786 352.593 39.0526 352.87 39.0526 353.233M120.966 327.684V361.144C120.966 363.624 123.182 365.625 125.899 365.625H133.114C135.843 365.625 138.039 363.622 138.039 361.144V327.676C138.039 327.318 138.35 327.042 138.74 327.042H145.824C148.548 327.042 150.756 325.041 150.756 322.566V315.895C150.756 313.422 148.546 311.417 145.824 311.417H113.179C110.454 311.417 108.258 313.422 108.258 315.895V322.566C108.258 325.041 110.454 327.042 113.179 327.042H120.282C120.66 327.042 120.964 327.318 120.964 327.676M282.124 343.469C282.124 343.119 282.427 342.842 282.825 342.842C283.033 342.842 283.243 342.923 283.359 343.062L304.8 364.575C304.832 364.634 304.884 364.664 304.929 364.713C305.546 365.277 306.431 365.63 307.386 365.63H312.072C314.203 365.63 315.913 364.066 315.913 362.127V315.905C315.913 313.432 313.702 311.429 310.988 311.429H303.78C301.056 311.429 298.845 313.432 298.845 315.905V333.293C298.845 333.644 298.549 333.95 298.159 333.95C297.975 333.947 297.799 333.876 297.665 333.75H297.64L276.425 312.531C276.366 312.471 276.341 312.434 276.287 312.392C275.612 311.794 274.739 311.468 273.837 311.476H268.907C266.788 311.476 265.051 313.052 265.051 314.986V361.194C265.051 363.674 267.255 365.674 269.984 365.674H277.211C279.901 365.674 282.124 363.671 282.124 361.194V343.469ZM231.02 325.229C222.946 325.229 216.403 331.171 216.403 338.542C216.403 345.882 222.946 351.847 231.02 351.847C239.102 351.847 245.65 345.882 245.65 338.542C245.65 331.171 239.102 325.229 231.02 325.229ZM262.487 338.542C262.487 354.357 248.404 367.196 231.02 367.196C213.634 367.196 199.558 354.359 199.558 338.542C199.558 322.709 213.634 309.88 231.02 309.88C248.404 309.88 262.487 322.709 262.487 338.542ZM387.976 341.723C383.967 338.515 381.426 333.755 381.426 328.489C381.426 318.71 390.118 310.779 400.837 310.779C408.415 310.779 410.186 311.627 411.959 312.378C413.748 313.106 415 314.768 415 316.68V322.351C415 324.705 412.893 326.629 410.314 326.629C407.721 326.629 406.785 325.449 404.411 325.449C402.02 325.449 400.079 327.215 400.079 329.386C400.079 330.467 400.57 331.465 401.358 332.174C401.554 332.345 401.773 332.493 401.991 332.653C403.895 333.972 406.434 335.748 407.289 336.583C407.341 336.642 407.37 336.647 407.412 336.677C410.858 339.88 412.975 344.252 412.975 349.106C412.975 358.867 404.293 366.781 393.556 366.781C386.005 366.781 384.224 365.946 382.451 365.2C380.643 364.459 379.408 362.807 379.408 360.902V355.214C379.408 352.865 381.502 350.951 384.093 350.951C386.684 350.951 387.611 352.124 389.997 352.124C392.38 352.124 394.324 350.361 394.324 348.194C394.324 346.893 393.615 345.724 392.548 345.008C391.792 344.492 389.159 342.684 387.976 341.723ZM352.562 345.245H343.774C343.376 345.245 343.065 344.941 343.065 344.593C343.065 344.517 343.085 344.462 343.112 344.391L347.496 332.767C347.545 332.633 347.635 332.517 347.754 332.438C347.872 332.358 348.013 332.317 348.156 332.322C348.482 332.322 348.746 332.498 348.842 332.767L353.236 344.391C353.249 344.457 353.256 344.525 353.256 344.593C353.256 344.941 352.95 345.245 352.562 345.245ZM377.504 361.48H377.518L360.006 313.85C359.488 312.442 358.033 311.432 356.304 311.432H340.024C338.308 311.432 336.846 312.442 336.324 313.85L318.832 361.48C318.71 361.791 318.647 362.122 318.644 362.456C318.644 364.21 320.218 365.63 322.167 365.63H332.494C334.208 365.63 335.672 364.629 336.186 363.219L336.198 363.16C336.198 363.16 336.216 363.16 336.216 363.103L337.051 360.865C337.132 360.601 337.419 360.421 337.725 360.421H358.618C358.932 360.421 359.196 360.598 359.283 360.865L360.12 363.103C360.127 363.103 360.127 363.16 360.127 363.16L360.14 363.219C360.661 364.627 362.128 365.63 363.864 365.63H374.174C376.108 365.63 377.669 364.21 377.669 362.456C377.672 362.124 377.615 361.793 377.504 361.48Z" fill="url(#paint0_linear_86_2)"/>
<path d="M268.033 214.058C268.033 242.505 245.047 265.56 216.714 265.56C188.381 265.56 165.394 242.505 165.394 214.058C165.394 185.612 188.379 162.54 216.714 162.54C245.05 162.54 268.033 185.614 268.033 214.058Z" fill="url(#paint1_linear_86_2)"/>
<path d="M261.072 136.951L226.535 76.8667H295.625L261.072 136.951ZM216.714 274.103C183.676 274.103 156.897 247.22 156.897 214.056C156.897 202.97 159.898 192.582 165.112 183.638L216.714 93.9489L268.312 183.638C273.711 192.865 276.552 203.365 276.542 214.056C276.544 247.22 249.745 274.103 216.714 274.103ZM270.886 153.999L325.069 59.8042H216.714L150.522 174.904C143.538 186.769 139.864 200.29 139.884 214.058C139.884 256.638 174.281 291.175 216.712 291.175C259.146 291.175 293.535 256.64 293.535 214.058C293.535 199.764 289.674 186.375 282.909 174.904L270.886 153.999Z" fill="url(#paint2_linear_86_2)"/>
</g>
<defs>
<linearGradient id="paint0_linear_86_2" x1="22" y1="338.538" x2="415" y2="338.538" gradientUnits="userSpaceOnUse">
<stop stop-color="#0019FF"/>
<stop offset="1" stop-color="#E21E80"/>
</linearGradient>
<linearGradient id="paint1_linear_86_2" x1="216.713" y1="162.54" x2="216.713" y2="265.56" gradientUnits="userSpaceOnUse">
<stop stop-color="#E21E80"/>
<stop offset="1" stop-color="#0019FF"/>
</linearGradient>
<linearGradient id="paint2_linear_86_2" x1="232.476" y1="59.8042" x2="194.429" y2="59.7385" gradientUnits="userSpaceOnUse">
<stop stop-color="#E21E80"/>
<stop offset="1" stop-color="#0820FF"/>
</linearGradient>
<clipPath id="clip0_86_2">
<rect width="393" height="393" fill="white" transform="translate(22 17)"/>
</clipPath>
</defs>
</svg>
